<svg xmlns="http://www.w3.org/2000/svg" data-name="Layer 1" viewBox="0 0 64 64"><path fill="#7cb2f8" d="M52,41H12a20,20,0,0,0,40,0Z"/><path fill="#4b9d93" d="M25.02 48.98l-.97.97a1.063 1.063 0 0 1-.11.09l-3.45 2.6a.991.991 0 0 0-.39.96l.66 3.93A19.945 19.945 0 0 1 12 41H24.5l-2.05 4.11a1 1 0 0 0 .44 1.34l1.87.93A1 1 0 0 1 25.02 48.98zM50.48 48.64A20 20 0 0 1 32 61a19.373 19.373 0 0 1-4.2-.45l3.91-7.04a1.029 1.029 0 0 1 .88-.51h4.56a1 1 0 0 0 .99-.84l.7-4.2a1 1 0 0 1 1.13-.82z"/><path fill="#92e016" d="M39,22c0,6.075-3.134,11-7,11s-7-4.925-7-11S32,8,32,8,39,15.925,39,22Z"/><path fill="#5eb71b" d="M22 28.5c0 4.142-2.239 7.5-5 7.5s-5-3.358-5-7.5S17 19 17 19 22 24.358 22 28.5zM52 28.5c0 4.142-2.239 7.5-5 7.5s-5-3.358-5-7.5S47 19 47 19 52 24.358 52 28.5z"/><circle cx="54" cy="10" r="3" fill="#d98285"/><path fill="#5ec5f7" d="M16.5,6a3.454,3.454,0,0,0-1.514.358,3.488,3.488,0,0,0-6.972,0A3.454,3.454,0,0,0,6.5,6a3.5,3.5,0,0,0,0,7h10a3.5,3.5,0,0,0,0-7Z"/><path d="M12 40a1 1 0 0 0-1 1 21 21 0 0 0 42 0 1 1 0 0 0-1-1H48V36.877c2.871-.657 5-4.1 5-8.377 0-4.485-5.054-9.952-5.269-10.182a1.031 1.031 0 0 0-1.462 0C46.054 18.548 41 24.015 41 28.5c0 4.281 2.129 7.72 5 8.377V40H33V33.9c4-.718 7-5.682 7-11.9 0-6.38-6.955-14.327-7.25-14.662a1.033 1.033 0 0 0-1.5 0C30.955 7.673 24 15.62 24 22c0 6.219 3 11.183 7 11.9V40H18V36.877c2.871-.657 5-4.1 5-8.377 0-4.485-5.054-9.952-5.269-10.182a1.031 1.031 0 0 0-1.462 0C16.054 18.548 11 24.015 11 28.5c0 4.281 2.129 7.72 5 8.377V40zM32 60a19.091 19.091 0 0 1-2.636-.2L32.59 54h4.56a1.993 1.993 0 0 0 1.976-1.675l.7-4.195L49 49.439A19.008 19.008 0 0 1 32 60zM43 28.5c0-2.6 2.451-6.108 4-7.979 1.549 1.871 4 5.381 4 7.979 0 2.964-1.3 5.533-3 6.277V30H46v4.777C44.3 34.033 43 31.464 43 28.5zM26 22c0-4.479 4.241-10.239 6-12.434 1.759 2.195 6 7.955 6 12.434 0 4.853-2.2 9.022-5 9.843V24H31v7.843C28.2 31.022 26 26.853 26 22zm-.881 20H50.974a18.866 18.866 0 0 1-1.141 5.538l-9.716-1.387A2.009 2.009 0 0 0 37.854 47.8l-.7 4.2H32.59a2.034 2.034 0 0 0-1.754 1.024L27.3 59.39a18.913 18.913 0 0 1-5.625-2.446l-.584-3.506 3.458-2.605a2.28 2.28 0 0 0 .207-.176l.97-.97a2 2 0 0 0-.522-3.2l-1.86-.928zM13 28.5c0-2.6 2.451-6.108 4-7.979 1.549 1.871 4 5.381 4 7.979 0 2.964-1.3 5.533-3 6.277V30H16v4.777C14.3 34.033 13 31.464 13 28.5zM22.884 42L21.56 44.656a2 2 0 0 0 .885 2.69l1.868.927-.975.969L19.9 51.833a1.983 1.983 0 0 0-.786 1.933l.23 1.369A18.946 18.946 0 0 1 13.026 42zM54 14a4 4 0 1 0-4-4A4 4 0 0 0 54 14zm0-6a2 2 0 1 1-2 2A2 2 0 0 1 54 8z"/><rect width="2" height="2" x="53" y="16"/><rect width="2" height="2" x="60" y="9"/><rect width="2" height="2" x="46" y="9"/><rect width="2" height="2" x="53" y="2"/><rect width="2" height="2" x="48.05" y="13.95" transform="rotate(-45 49.05 14.95)"/><rect width="2" height="2" x="57.95" y="13.95" transform="rotate(-45 58.95 14.95)"/><rect width="2" height="2" x="48.05" y="4.05" transform="rotate(-45 49.05 5.05)"/><rect width="2" height="2" x="57.95" y="4.05" transform="rotate(-45 58.95 5.05)"/><path d="M6.5,14h10a4.5,4.5,0,0,0,0-9,4.312,4.312,0,0,0-.744.064,4.488,4.488,0,0,0-8.512,0A4.312,4.312,0,0,0,6.5,5a4.5,4.5,0,0,0,0,9Zm0-7a2.47,2.47,0,0,1,1.079.258A1,1,0,0,0,9.013,6.4a2.489,2.489,0,0,1,4.974,0,1,1,0,0,0,1.434.86A2.47,2.47,0,0,1,16.5,7a2.5,2.5,0,0,1,0,5H6.5a2.5,2.5,0,0,1,0-5Z"/></svg>